<?xml version="1.0" encoding="utf-8"?>
<!-- Generator: Adobe Illustrator 28.0.0, SVG Export Plug-In . SVG Version: 6.00 Build 0)  -->
<svg version="1.1" id="Laag_1" xmlns="http://www.w3.org/2000/svg" xmlns:xlink="http://www.w3.org/1999/xlink" x="0px" y="0px"
	 viewBox="0 0 28 26" style="enable-background:new 0 0 28 26;" xml:space="preserve">
<style type="text/css">
	.st0{clip-path:url(#SVGID_00000152980876897075818190000001478738781272445085_);}
	.st1{fill:#0A4164;}
</style>
<g id="Group_396" transform="translate(0 0.001)">
	<g>
		<defs>
			<rect id="SVGID_1_" y="0" width="28" height="26"/>
		</defs>
		<clipPath id="SVGID_00000155144292466892492950000008421294118326905274_">
			<use xlink:href="#SVGID_1_"  style="overflow:visible;"/>
		</clipPath>
		
			<g id="Group_116" transform="translate(0 0)" style="clip-path:url(#SVGID_00000155144292466892492950000008421294118326905274_);">
			<path id="Path_129" class="st1" d="M0.7,1.4h3c0.6,0,1.1,0.4,1.2,0.9l3.3,17.2c0.2,1.1,1.2,1.8,2.3,1.9h13.8
				c0.4,0,0.7-0.3,0.7-0.7c0-0.4-0.3-0.7-0.7-0.7H10.5c-0.4,0-0.8-0.3-0.9-0.7l-0.4-2.1h15.1c0.3,0,0.6-0.2,0.7-0.5l2.8-11.2
				c0.1-0.4-0.2-0.8-0.6-0.9c0,0-0.1,0-0.1,0H6.8L6.3,2.1C6,0.9,4.9,0,3.7,0h-3C0.3,0,0,0.3,0,0.7S0.3,1.4,0.7,1.4 M8.1,11.7h3
				l0.7,4.1h-3L8.1,11.7z M17.2,15.8v-4.1h3.3l-0.7,4.1H17.2z M15.8,15.8h-2.6l-0.7-4.1h3.3L15.8,15.8L15.8,15.8z M23.7,15.8h-2.5
				l0.7-4.1h2.8L23.7,15.8z M25.1,10.3h-3l0.7-4.2V6h3.3L25.1,10.3z M21.4,6l-0.7,4.3h-3.5V6H21.4z M15.8,10.3h-3.5L11.6,6h4.2
				L15.8,10.3z M10.2,6v0.1l0.7,4.2H7.8L7,6H10.2z"/>
			<path id="Path_130" class="st1" d="M12.5,22.8c0.9,0,1.6,0.7,1.6,1.6S13.3,26,12.5,26c-0.9,0-1.6-0.7-1.6-1.6
				S11.6,22.8,12.5,22.8C12.5,22.8,12.5,22.8,12.5,22.8"/>
			<path id="Path_131" class="st1" d="M20.9,22.8c0.9,0,1.6,0.7,1.6,1.6S21.8,26,20.9,26c-0.9,0-1.6-0.7-1.6-1.6S20,22.8,20.9,22.8
				C20.9,22.8,20.9,22.8,20.9,22.8"/>
		</g>
	</g>
</g>
</svg>
