<?xml version="1.0" encoding="utf-8"?>
<!-- Generator: Adobe Illustrator 28.0.0, SVG Export Plug-In . SVG Version: 6.00 Build 0)  -->
<svg version="1.1" id="Laag_1" xmlns="http://www.w3.org/2000/svg" xmlns:xlink="http://www.w3.org/1999/xlink" x="0px" y="0px"
	 viewBox="0 0 28.3 28.3" style="enable-background:new 0 0 28.3 28.3;" xml:space="preserve">
<path d="M25.8,28.3c-0.6,0-1.3-0.2-1.8-0.7L0.7,4.2c-1-1-1-2.5,0-3.5c1-1,2.5-1,3.5,0l23.3,23.3c1,1,1,2.5,0,3.5
	C27.1,28.1,26.5,28.3,25.8,28.3z"/>
<path d="M2.5,28.3c-0.6,0-1.3-0.2-1.8-0.7c-1-1-1-2.5,0-3.5L24.1,0.7c1-1,2.5-1,3.5,0c1,1,1,2.5,0,3.5L4.2,27.6
	C3.7,28.1,3.1,28.3,2.5,28.3z"/>
</svg>
