<?xml version="1.0" encoding="utf-8"?>
<!-- Generator: Adobe Illustrator 28.0.0, SVG Export Plug-In . SVG Version: 6.00 Build 0)  -->
<svg version="1.1" id="Group_40" xmlns="http://www.w3.org/2000/svg" xmlns:xlink="http://www.w3.org/1999/xlink" x="0px" y="0px"
	 viewBox="0 0 32 32" style="enable-background:new 0 0 32 32;" xml:space="preserve">
<style type="text/css">
	.st0{clip-path:url(#SVGID_00000088814628904196596770000012130251273490474380_);}
	.st1{fill:#FFFFFF;}
</style>
<g>
	<defs>
		<rect id="SVGID_1_" x="0" y="0" width="32" height="32"/>
	</defs>
	<clipPath id="SVGID_00000158714576871647224310000015706226882376303752_">
		<use xlink:href="#SVGID_1_"  style="overflow:visible;"/>
	</clipPath>
	<g id="Group_39" style="clip-path:url(#SVGID_00000158714576871647224310000015706226882376303752_);">
		<path id="Path_45" class="st1" d="M26,0H6C2.7,0,0,2.7,0,6v20c0,3.3,2.7,6,6,6h20c3.3,0,6-2.7,6-6V6C32,2.7,29.3,0,26,0 M19.4,16
			h-2.2v8h-3.3v-8h-1.6v-2.8h1.6v-1.8C13.7,9.6,15,8.1,16.7,8c0.2,0,0.3,0,0.5,0l2.5,0v2.7h-1.8c-0.4,0-0.7,0.3-0.7,0.6
			c0,0,0,0.1,0,0.1v1.7h2.5L19.4,16z"/>
	</g>
</g>
</svg>
