<?xml version="1.0" encoding="utf-8"?>
<!-- Generator: Adobe Illustrator 27.8.0, SVG Export Plug-In . SVG Version: 6.00 Build 0)  -->
<svg version="1.1" id="Layer_1" xmlns="http://www.w3.org/2000/svg" xmlns:xlink="http://www.w3.org/1999/xlink" x="0px" y="0px"
	 viewBox="0 0 500 362.1" style="enable-background:new 0 0 500 362.1;" xml:space="preserve">
<style type="text/css">
	.st0{fill:#1A1818;}
</style>
<path class="st0" d="M250,0C111.9,0,0,111.9,0,250c0,40.3,9.6,78.4,26.5,112.1c60.5-16.8,134.2-34.8,231-53.5
	c0.7-3.7,5.5-7.8,10.2-9.3c0.3-0.1,0.7-0.2,1-0.3c-0.3-27.2-0.5-56.9-0.5-61.3c0.2-12.5-0.2-25.1-2.1-37.5c-1.8-12-5-23.9-9.8-35.1
	c-4.6-10.8-11.3-20.7-19.1-29.4c-8.1-8.9-17.3-16.7-27.1-23.7c-10.7-7.6-22.1-14.5-34.1-19.7c-23.4-10.1-47.6-12.5-73.9-11.5
	c36.1,23.7,66.1,84.5,101.1,98.5c15.3,6.2,31.1,3,45,6.1c2.2,0.5,4.6,1.1,5.8,1.9c-0.1-5-4.3-11-6.1-14
	c-10.3-17.4-20.8-25.7-36.8-38c-25.5-19.4-32.8-28-84.5-46.6c19.2,5.1,38,12.1,55.6,21.4c23.1,12,44.6,28,61.5,47.8
	c5.7,6.7,6.5,8.6,10.7,16.2c2.6,4.7,5.1,13,5.1,18.6c-17.2,2.9-31.5,9.6-48.8,6.6c-13.5-2.3-26.6-7.7-36.6-17.2
	c-4.7-4.5-8.3-9.9-12-15.3c-3.7-5.5-7.4-11-11.1-16.5c-17-25.5-34.9-51.2-59.2-70.5c8.6-2.6,43-2.5,66.6,2.5
	c14,3,27.2,7.2,39.5,14.5c21.6,12.9,42.2,29.2,55.8,50.6c13,20.3,18.4,44.7,20,68.5c0.4-2.4,0.9-4.8,1.5-7.1
	c3.1-11.6,8.4-22.4,16.6-31.2c8-8.6,18.1-15.2,28.7-20.4c10.7-5.2,20.4-8.3,31.9-11.4c19.1-5.2,31.6-6.4,36-5.2
	c-0.8,2-8.8,22.5-14.7,32.8c-7,12.5-15.9,23.8-28.3,31.4c-18.3,11.2-54,15.4-58.8,11.1c5.4-12.5,15.6-32.6,37.1-45.8
	c22.2-13.6,49.3-21.1,49.4-20.5c0.1,0.6-25.7,8.9-45.9,23.3c-15.7,11.2-27.2,26.5-33,39.4c7.5-5.5,15.9-6.2,29.3-9.6
	c36.6-9.2,56.2-40.2,61.9-60.2c-3,0.2-6,0.6-9,1.2c-11.6,2.1-23.1,5.4-34.3,9.3c-10.6,3.7-22.9,10.9-32.2,17.2
	c-9.1,6.1-17.1,13.8-22.4,23.4c-6,10.7-8.8,23.2-9.3,35.3c-0.3,7.9-2.9,23.7-4.1,42.3c-0.3,5-0.9,15.1-1.6,27.3
	c4.9-0.2,9.9,1.5,10.9,4.7c0.1,0.2,0.1,0.3,0.1,0.5c62.1-11.6,133.2-23.4,215.8-35.4c0.4-6,0.7-12.1,0.7-18.2
	C500,111.9,388.1,0,250,0z"/>
</svg>
