<?xml version="1.0" encoding="utf-8"?>
<!-- Generator: Adobe Illustrator 27.8.0, SVG Export Plug-In . SVG Version: 6.00 Build 0)  -->
<svg version="1.1" id="Layer_1" xmlns="http://www.w3.org/2000/svg" xmlns:xlink="http://www.w3.org/1999/xlink" x="0px" y="0px"
	 viewBox="0 0 26 26" style="enable-background:new 0 0 26 26;" xml:space="preserve">
<style type="text/css">
	.st0{fill:#FFFFFF;}
</style>
<g id="Group_85">
	<path id="Path_63" class="st0" d="M13,0C5.8,0,0,5.8,0,13s5.8,13,13,13c7.1,0,13-5.8,13-12.9C26,5.9,20.2,0,13,0C13,0,13,0,13,0
		 M12.2,6.5c-1.2,0-2.4-0.3-3.5-0.7c0.9-2.1,2.1-3.5,3.5-4V6.5z M12.2,8.1v4.1H7.3c0.1-1.6,0.3-3.2,0.8-4.8C9.4,7.8,10.8,8,12.2,8.1
		 M12.2,13.8v4.1c-1.4,0.1-2.8,0.3-4.1,0.7c-0.4-1.6-0.7-3.2-0.7-4.8H12.2z M12.2,19.5v4.7c-1.4-0.4-2.7-2-3.6-4.1
		C9.8,19.8,11,19.6,12.2,19.5 M13.8,19.5c1.2,0.1,2.4,0.3,3.6,0.6c-0.9,2.1-2.2,3.7-3.6,4.1L13.8,19.5z M13.8,17.9v-4.1h4.9
		c-0.1,1.6-0.3,3.2-0.7,4.8C16.6,18.2,15.2,17.9,13.8,17.9 M13.8,12.2V8.1c1.4-0.1,2.7-0.3,4.1-0.7c0.4,1.6,0.7,3.2,0.8,4.8
		L13.8,12.2z M13.8,6.5V1.9c1.4,0.4,2.6,1.9,3.5,4C16.2,6.2,15,6.4,13.8,6.5 M17.2,2.4c1.2,0.5,2.2,1.1,3.2,1.9
		c-0.5,0.3-1,0.6-1.5,0.8C18.4,4.2,17.9,3.3,17.2,2.4 M7.2,5.3C6.6,5,6.1,4.7,5.6,4.4c1-0.8,2-1.5,3.2-2C8.1,3.3,7.6,4.3,7.2,5.3z
		 M6.6,6.7c-0.5,1.8-0.8,3.6-0.9,5.4H1.6c0.2-2.5,1.2-4.8,2.8-6.7C5.1,6,5.8,6.4,6.6,6.7z M5.7,13.8c0,1.8,0.3,3.7,0.8,5.4
		C5.8,19.6,5,20,4.4,20.5c-1.6-1.9-2.6-4.2-2.8-6.7L5.7,13.8z M7.1,20.8c0.4,1,0.9,1.9,1.5,2.8c-1.1-0.5-2.1-1.1-3.1-1.9
		C6,21.4,6.5,21.1,7.1,20.8z M18.9,20.8c0.5,0.2,1.1,0.5,1.5,0.8c-0.9,0.8-1.9,1.5-3.1,1.9C18,22.6,18.5,21.7,18.9,20.8 M19.4,19.3
		c0.5-1.8,0.8-3.6,0.8-5.4h4.1c-0.1,2.5-1.1,4.8-2.8,6.7C20.9,20,20.2,19.5,19.4,19.3L19.4,19.3z M20.3,12.2
		c-0.1-1.8-0.4-3.7-0.9-5.4c0.7-0.3,1.5-0.7,2.1-1.2c1.6,1.9,2.6,4.2,2.8,6.7H20.3z"/>
</g>
</svg>
