<?xml version="1.0" encoding="utf-8"?>
<!-- Generator: Adobe Illustrator 28.0.0, SVG Export Plug-In . SVG Version: 6.00 Build 0)  -->
<svg version="1.1" id="Layer_1" xmlns="http://www.w3.org/2000/svg" xmlns:xlink="http://www.w3.org/1999/xlink" x="0px" y="0px"
	 viewBox="0 0 100 60.4" style="enable-background:new 0 0 100 60.4;" xml:space="preserve">
<path d="M72.5,36.2c-1.1,0-2-0.9-2-2v-4.5c0-1.1,0.9-2,2-2c0.5,0,1,0.3,1.4,0.6c0.4,0.4,0.6,0.9,0.6,1.4v4.5
	C74.5,35.3,73.6,36.2,72.5,36.2L72.5,36.2z"/>
<path d="M72.5,35.3c0.6,0,1.3-0.5,1.3-1.3v-4.5c0-0.6-0.5-1.3-1.3-1.3c-0.6,0-1.3,0.5-1.3,1.3l0,0V34C71.3,34.8,71.8,35.3,72.5,35.3
	z"/>
<g>
	<path d="M60.3,35.5l-6.5-10.8c-0.4-0.6-1.1-1-1.9-1H36.7v-2.1c0-2.4-1.9-4.3-4.3-4.3h-28c-2.4,0-4.3,1.9-4.3,4.3v13
		c0,1.1,1,2.1,2.1,2.1s2.1-1,2.1-2.1v-13h28v30.3H28c-1.1,0-2.1,1-2.1,2.1s1,2.1,2.1,2.1h11.6c1.8,3.8,6.3,5.4,10.1,3.6
		c1.5-0.9,2.8-2.1,3.5-3.8h2.9c2.4,0,4.3-1.9,4.3-4.3v-15C60.5,36.2,60.4,35.8,60.3,35.5z M50.6,27.9l3.9,6.5h-9.2v-6.5H50.6z
		 M46.4,56c-1.8,0-3.3-1.5-3.3-3.3s1.5-3.3,3.3-3.3s3.3,1.5,3.3,3.3S48.2,56,46.4,56z M56.2,51.7H54c-0.5-4.2-4.3-7-8.4-6.4
		c-3.4,0.5-6,3.1-6.4,6.4h-2.4V27.9H41v6.5c0,2.4,1.9,4.3,4.3,4.3h10.8V43C55,43,54,44,54,45.2c0,1.1,1,2.1,2.1,2.1v4.4
		C56.1,51.7,56.2,51.7,56.2,51.7z"/>
	<path d="M19.4,47.4h-2.1v-6.5c0-1.1-1-2.1-2.1-2.1H6.4c-1.1,0-2.1,1-2.1,2.1v6.5H2.1c-1.1,0-2.1,1-2.1,2.1v8.7c0,1.1,1,2.1,2.1,2.1
		h17.2c1.1,0,2.1-1,2.1-2.1v-8.7C21.6,48.3,20.6,47.4,19.4,47.4z M8.6,43h4.3v4.3H8.6V43z M4.3,51.7h4.3V56H4.3V51.7z M17.2,56H13
		v-4.3h4.3L17.2,56L17.2,56z"/>
</g>
<path d="M75.8,0.3C75.5,0,75.2,0,74.8,0S74,0.1,73.7,0.4c-7.4,5.3-13.3,12.2-17.5,20l3.9,1.3C63.8,15,68.7,9.1,74.8,4.4
	C87.7,14.3,95.6,29.7,96,46H84.7V16c0-1.1-0.9-2-2-2H66.8c-1.1,0-2,0.9-2,2v30h-0.9v4H98c1.1,0,2-0.9,2-2
	C100.1,29.2,91.2,11.3,75.8,0.3z M80.6,46H68.7V17.9h11.9V46z"/>
</svg>
