<?xml version="1.0" encoding="utf-8"?>
<!-- Generator: Adobe Illustrator 28.0.0, SVG Export Plug-In . SVG Version: 6.00 Build 0)  -->
<svg version="1.1" id="Layer_1" xmlns="http://www.w3.org/2000/svg" xmlns:xlink="http://www.w3.org/1999/xlink" x="0px" y="0px"
	 viewBox="0 0 100 100" style="enable-background:new 0 0 100 100;" xml:space="preserve">
<path d="M72.5,55.4c-1.1,0-2-0.9-2-2v-4.5c0-1.1,0.9-2,2-2c0.5,0,1,0.3,1.4,0.6c0.4,0.4,0.6,0.9,0.6,1.4v4.5
	C74.5,54.5,73.6,55.4,72.5,55.4L72.5,55.4z"/>
<path d="M72.5,54.5c0.6,0,1.3-0.5,1.3-1.3v-4.5c0-0.6-0.5-1.3-1.3-1.3c-0.6,0-1.3,0.5-1.3,1.3l0,0v4.5C71.3,54,71.8,54.5,72.5,54.5z
	"/>
<g>
	<path d="M60.3,54.7l-6.5-10.8c-0.4-0.6-1.1-1-1.9-1H36.7v-2.1c0-2.4-1.9-4.3-4.3-4.3h-28c-2.4,0-4.3,1.9-4.3,4.3v13
		c0,1.1,1,2.1,2.1,2.1s2.1-1,2.1-2.1v-13h28v30.3H28c-1.1,0-2.1,1-2.1,2.1s1,2.1,2.1,2.1h11.6c1.8,3.8,6.3,5.4,10.1,3.6
		c1.5-0.9,2.8-2.1,3.5-3.8h2.9c2.4,0,4.3-1.9,4.3-4.3v-15C60.5,55.4,60.4,55,60.3,54.7z M50.6,47.1l3.9,6.5h-9.2v-6.5
		C45.3,47.1,50.6,47.1,50.6,47.1z M46.4,75.2c-1.8,0-3.3-1.5-3.3-3.3c0-1.8,1.5-3.3,3.3-3.3s3.3,1.5,3.3,3.3
		C49.7,73.7,48.2,75.2,46.4,75.2z M56.2,70.9H54c-0.5-4.2-4.3-7-8.4-6.4c-3.4,0.5-6,3.1-6.4,6.4h-2.4V47.1H41v6.5
		c0,2.4,1.9,4.3,4.3,4.3h10.8v4.3c-1.1,0-2.1,1-2.1,2.2c0,1.1,1,2.1,2.1,2.1v4.4H56.2z"/>
	<path d="M19.4,66.6h-2.1v-6.5c0-1.1-1-2.1-2.1-2.1H6.4c-1.1,0-2.1,1-2.1,2.1v6.5H2.1c-1.1,0-2.1,1-2.1,2.1v8.7c0,1.1,1,2.1,2.1,2.1
		h17.2c1.1,0,2.1-1,2.1-2.1v-8.7C21.6,67.5,20.6,66.6,19.4,66.6z M8.6,62.2h4.3v4.3H8.6V62.2z M4.3,70.9h4.3v4.3H4.3V70.9z
		 M17.2,75.2H13v-4.3h4.3L17.2,75.2L17.2,75.2z"/>
</g>
<path d="M75.8,19.5c-0.3-0.3-0.6-0.3-1-0.3c-0.4,0-0.8,0.1-1.1,0.4c-7.4,5.3-13.3,12.2-17.5,20l3.9,1.3c3.7-6.7,8.6-12.6,14.7-17.3
	C87.7,33.5,95.6,48.9,96,65.2H84.7v-30c0-1.1-0.9-2-2-2H66.8c-1.1,0-2,0.9-2,2v30h-0.9v4H98c1.1,0,2-0.9,2-2
	C100.1,48.4,91.2,30.5,75.8,19.5z M80.6,65.2H68.7V37.1h11.9V65.2z"/>
</svg>
