<?xml version="1.0" encoding="utf-8"?>
<!-- Generator: Adobe Illustrator 28.0.0, SVG Export Plug-In . SVG Version: 6.00 Build 0)  -->
<svg version="1.1" id="Group_34" xmlns="http://www.w3.org/2000/svg" xmlns:xlink="http://www.w3.org/1999/xlink" x="0px" y="0px"
	 viewBox="0 0 32 32" style="enable-background:new 0 0 32 32;" xml:space="preserve">
<style type="text/css">
	.st0{clip-path:url(#SVGID_00000144303418082094896930000014416813010498125972_);}
	.st1{fill:#FFFFFF;}
</style>
<g>
	<defs>
		<rect id="SVGID_1_" y="0" width="32" height="32"/>
	</defs>
	<clipPath id="SVGID_00000118363861702226058430000011534399521447415206_">
		<use xlink:href="#SVGID_1_"  style="overflow:visible;"/>
	</clipPath>
	<g id="Group_33" style="clip-path:url(#SVGID_00000118363861702226058430000011534399521447415206_);">
		<path id="Path_38" class="st1" d="M19.3,16.3c0-1.7-1.4-3.2-3.1-3.2c-1.7,0-3.2,1.4-3.2,3.1s1.4,3.2,3.1,3.2c0,0,0,0,0,0
			C17.9,19.5,19.3,18.1,19.3,16.3"/>
		<path id="Path_39" class="st1" d="M16.2,8.8c1.6,0,3.1,0.5,4.4,1.4H32V8c0-4.4-3.6-8-8-8H8C3.6,0,0,3.6,0,8v2.2h11.8
			C13.1,9.3,14.6,8.8,16.2,8.8 M22.7,4.8c0-0.5,0.4-0.9,0.9-0.9h2.7c0.5,0,0.9,0.4,0.9,0.9v2.7c0,0.5-0.4,0.9-0.9,0.9h-2.7
			c-0.5,0-0.9-0.4-0.9-0.9V4.8z"/>
		<path id="Path_40" class="st1" d="M23.8,16.3c-0.1,4.2-3.6,7.5-7.8,7.4c-4-0.1-7.2-3.3-7.4-7.4c0-1.1,0.2-2.2,0.7-3.2H0V24
			c0,4.4,3.6,8,8,8h16c4.4,0,8-3.6,8-8V13.1h-9C23.5,14.1,23.8,15.2,23.8,16.3"/>
	</g>
</g>
</svg>
