<?xml version="1.0" encoding="utf-8"?>
<!-- Generator: Adobe Illustrator 28.0.0, SVG Export Plug-In . SVG Version: 6.00 Build 0)  -->
<svg version="1.1" id="Layer_1" xmlns="http://www.w3.org/2000/svg" xmlns:xlink="http://www.w3.org/1999/xlink" x="0px" y="0px"
	 viewBox="0 0 233.3 140.1" style="enable-background:new 0 0 233.3 140.1;" xml:space="preserve">
<style type="text/css">
	.st0{fill:#FDFEFF;}
</style>
<path class="st0" d="M0,140.1c29.8-8.3,66.2-17.2,114-26.4c0.4-1.8,2.7-3.9,5-4.6c0.2-0.1,0.3-0.1,0.5-0.1
	c-0.2-13.4-0.3-28.1-0.2-30.3c0.1-6.2-0.1-12.4-1-18.5c-0.9-5.9-2.5-11.8-4.8-17.3c-2.3-5.4-5.6-10.2-9.4-14.5
	c-4-4.4-8.5-8.3-13.4-11.7C85.4,13,79.8,9.6,73.9,7C62.4,2,50.4,0.8,37.4,1.3C55.2,13,70,43,87.3,49.9c7.6,3,15.3,1.5,22.2,3
	c1.1,0.2,2.2,0.6,2.9,0.9c-0.1-2.5-2.1-5.4-3-6.9c-5.1-8.6-10.3-12.7-18.2-18.7C78.6,18.6,75,14.4,49.5,5.2
	c9.5,2.5,18.7,6,27.4,10.5c11.4,5.9,22,13.8,30.3,23.6c2.8,3.3,3.2,4.2,5.3,8c1.3,2.3,2.5,6.4,2.5,9.2c-8.5,1.4-15.5,4.7-24.1,3.2
	c-6.6-1.2-13.1-3.8-18.1-8.5c-2.3-2.2-4.1-4.9-5.9-7.5c-1.8-2.7-3.6-5.4-5.5-8.1C53,23,44.2,10.3,32.2,0.8C36.4-0.5,53.4-0.4,65.1,2
	C72,3.5,78.5,5.6,84.6,9.2c10.6,6.3,20.8,14.4,27.5,25c6.4,10,9.1,22,9.8,33.8c0.2-1.2,0.4-2.4,0.7-3.5c1.5-5.7,4.2-11,8.2-15.4
	c4-4.3,8.9-7.5,14.1-10c5.3-2.6,10.1-4.1,15.7-5.6c9.4-2.6,15.6-3.1,17.8-2.6c-0.4,1-4.4,11.1-7.2,16.2c-3.5,6.2-7.8,11.7-13.9,15.5
	c-9,5.5-26.6,7.6-29,5.5c2.7-6.2,7.7-16.1,18.3-22.6c10.9-6.7,24.3-10.4,24.4-10.1s-12.7,4.4-22.7,11.5
	c-7.7,5.5-13.4,13.1-16.3,19.4c3.7-2.7,7.8-3.1,14.5-4.7c18-4.5,27.8-19.8,30.5-29.7c-1.5,0.1-3,0.3-4.4,0.6
	c-5.7,1-11.4,2.7-16.9,4.6c-5.2,1.8-11.3,5.4-15.9,8.5c-4.5,3-8.4,6.8-11.1,11.5c-2.9,5.3-4.3,11.4-4.6,17.4
	c-0.2,3.9-1.4,11.7-2,20.9c-0.2,2.5-0.4,7.4-0.8,13.4c2.4-0.1,4.9,0.7,5.4,2.3c0,0.1,0,0.2,0.1,0.3c30.6-5.7,65.7-11.6,106.5-17.5"
	/>
</svg>
