<?xml version="1.0" encoding="utf-8"?>
<!-- Generator: Adobe Illustrator 27.8.0, SVG Export Plug-In . SVG Version: 6.00 Build 0)  -->
<svg version="1.1" id="Layer_1" xmlns="http://www.w3.org/2000/svg" xmlns:xlink="http://www.w3.org/1999/xlink" x="0px" y="0px"
	 viewBox="0 0 100 100" style="enable-background:new 0 0 100 100;" xml:space="preserve">
<style type="text/css">
	.st0{fill:#0A4164;}
</style>
<path class="st0" d="M94.5,20L83.7,30.8c-0.2,0.2-0.6,0.3-0.8,0.3l-11.2-2c-0.4-0.1-0.7-0.4-0.8-0.8l-2-11.2c0-0.3,0-0.6,0.3-0.8
	L80,5.5c0.8-0.8,0.7-2.2-0.2-2.9C77.3,0.8,74.4,0,72.1,0c-0.2,0-0.3,0-0.5,0c-3,0.2-9.4,1.9-14.4,7.1c-4.8,5.1-9.9,14.6-5.4,25.1
	c0.5,1.3,1.1,3-0.6,4.7c-1.8,1.8-48,45.3-48,45.3c-4.3,3.7-4,10.6,0,14.6c2,2,4.8,3.1,7.5,3.1c2.7,0,5.3-1,7.1-3.1
	c0,0,43.1-45.9,45.2-48c1-0.9,1.9-1.2,2.7-1.2c0.8,0,1.5,0.3,2.1,0.6c2.4,1.2,5,1.8,7.8,1.8c6.4,0,13.2-3,17.4-7.1
	c5.9-5.9,6.9-11.5,7.1-14.4c0.1-2.4-0.5-5.4-2.6-8.2C96.7,19.3,95.3,19.2,94.5,20L94.5,20z M13.1,91.7c-1.3,1.3-3.5,1.3-4.8,0
	c-1.3-1.3-1.3-3.5,0-4.8c1.3-1.3,3.5-1.3,4.8,0C14.4,88.2,14.4,90.4,13.1,91.7z"/>
</svg>
