<?xml version="1.0" encoding="utf-8"?>
<!-- Generator: Adobe Illustrator 27.8.0, SVG Export Plug-In . SVG Version: 6.00 Build 0)  -->
<svg version="1.1" id="Layer_1" xmlns="http://www.w3.org/2000/svg" xmlns:xlink="http://www.w3.org/1999/xlink" x="0px" y="0px"
	 viewBox="0 0 500 322" style="enable-background:new 0 0 500 322;" xml:space="preserve">
<style type="text/css">
	.logo-st0{fill:#FFFFFF;}
</style>
<g>
	<g>
		<path class="logo-st0" d="M50.2,298c-2.2,0-3.8-1-4.6-2.9l-24.1-52.2h-0.3v51.3c0,2.5-1.4,3.9-3.9,3.9H3.9c-2.5,0-3.9-1.4-3.9-3.9
			v-84.7c0-2.5,1.4-3.9,3.9-3.9h15.9c2.2,0,3.8,1,4.6,2.9l22.4,48.6h0.3v-47.6c0-2.5,1.4-3.9,3.9-3.9h13.4c2.5,0,3.9,1.4,3.9,3.9
			v84.7c0,2.5-1.4,3.9-3.9,3.9H50.2z"/>
		<path class="logo-st0" d="M146,253.5V273c0,17.1-10,26.7-28.1,26.7s-28.1-9.6-28.1-26.7v-19.5c0-17.1,10-26.7,28.1-26.7
			S146,236.3,146,253.5z M126.2,254.6c0-7.2-2.8-10.9-8.4-10.9s-8.4,3.6-8.4,10.9v17.3c0,7.2,2.8,10.9,8.4,10.9s8.4-3.6,8.4-10.9
			V254.6z"/>
		<path class="logo-st0" d="M164.9,254.2c0-18,8.8-27.4,25.5-27.4c6,0,11.1,1.3,15.7,3.6c2.2,1.1,2.6,3.1,1.5,5.3l-3.9,7.9
			c-1.1,2.4-2.9,2.6-5.3,1.5c-2-1-3.9-1.4-5.9-1.4c-5.2,0-7.9,3.3-7.9,9.3v41.1c0,2.5-1.4,3.9-3.9,3.9h-12c-2.5,0-3.9-1.4-3.9-3.9
			V254.2z"/>
		<path class="logo-st0" d="M279,253v41.1c0,2.5-1.4,3.9-3.9,3.9h-12c-2.5,0-3.9-1.4-3.9-3.9V254c0-7-2.5-10.3-7.8-10.3
			c-5.2,0-7.8,3.5-7.8,10.3v40.1c0,2.5-1.4,3.9-3.9,3.9h-12c-2.5,0-3.9-1.4-3.9-3.9v-89.7c0-2.5,1.4-3.9,3.9-3.9h12
			c2.5,0,3.9,1.4,3.9,3.9v26.2h0.3c2.9-2.5,7.1-3.9,12.1-3.9C270.8,226.7,279,236,279,253z"/>
		<path class="logo-st0" d="M352,255v18c0,17.1-10,26.7-28.1,26.7c-17.8,0-27.2-7.8-27.2-22.7c0-13.8,8.8-21.3,25.5-21.3h10
			c0-8.6-3.8-12-11.1-12c-3.8,0-7.7,1.3-11,3.3c-2.2,1.4-4,1.1-5.3-1.1l-4.3-7.9c-1.3-2.1-0.8-3.9,1.1-5.3c6.4-4,13.2-6,21.5-6
			C341.6,226.7,352,236.3,352,255z M332.3,271.9v-2.9H325c-5.3,0-8.5,2.6-8.5,7c0,4.3,2.8,6.8,7.4,6.8
			C329.5,282.7,332.3,279.1,332.3,271.9z"/>
		<path class="logo-st0" d="M425.9,253.5v42.4c0,16.4-10.6,26.2-28.6,26.2c-9.1,0-17.1-2.4-23-6.7c-2-1.5-2.2-3.3-1-5.4l4.7-7.9
			c1.4-2.4,3.2-2.6,5.4-1.1c4.2,2.9,8.4,4.3,12.5,4.3c6.7,0,10-3.2,10-9.6v-2.6h-0.3c-2.9,2.5-7,3.9-11.8,3.9
			c-15.7,0-24.4-9.6-24.4-26.7v-16.6c0-17.1,10-26.7,28.1-26.7C415.9,226.7,425.9,236.3,425.9,253.5z M406.1,268.9v-14.4
			c0-7.2-2.8-10.9-8.4-10.9s-8.4,3.6-8.4,10.9v14.4c0,7.2,2.8,10.9,8.4,10.9C403.2,279.8,406.1,276,406.1,268.9z"/>
		<path class="logo-st0" d="M500,253.5V265c0,2.5-1.4,3.9-3.9,3.9h-31.5v1.5c0,8.8,3.5,12.3,11.3,12.3c3.9,0,7.4-1.1,10.7-3.5
			c2.2-1.5,4-1.4,5.4,0.8l4.9,7.4c1.3,2.1,1.1,3.9-0.8,5.4c-5.6,4.3-13.1,6.8-20.8,6.8c-20.1,0-30.5-9.2-30.5-28.3v-18
			c0-17.1,9.9-26.7,27.6-26.7S500,236.3,500,253.5z M481.3,254.6c0-7.2-2.8-10.9-8.4-10.9c-5.6,0-8.4,3.6-8.4,10.9v1.1h16.7V254.6z"
			/>
	</g>
	<path class="logo-st0" d="M235.4,0c-68.1,0-123.4,55.2-123.4,123.4c0,19.9,4.7,38.7,13.1,55.3c29.8-8.3,66.2-17.2,114-26.4
		c0.4-1.8,2.7-3.9,5-4.6c0.2-0.1,0.3-0.1,0.5-0.1c-0.2-13.4-0.3-28.1-0.2-30.3c0.1-6.2-0.1-12.4-1-18.5c-0.9-5.9-2.5-11.8-4.8-17.3
		c-2.3-5.4-5.6-10.2-9.4-14.5c-4-4.4-8.5-8.3-13.4-11.7c-5.3-3.7-10.9-7.1-16.8-9.7c-11.5-5-23.5-6.2-36.5-5.7
		c17.8,11.7,32.6,41.7,49.9,48.6c7.6,3,15.3,1.5,22.2,3c1.1,0.2,2.3,0.5,2.9,0.9c-0.1-2.5-2.1-5.4-3-6.9
		c-5.1-8.6-10.3-12.7-18.2-18.7c-12.6-9.6-16.2-13.8-41.7-23c9.5,2.5,18.7,6,27.4,10.5c11.4,5.9,22,13.8,30.3,23.6
		c2.8,3.3,3.2,4.2,5.3,8c1.3,2.3,2.5,6.4,2.5,9.2c-8.5,1.4-15.5,4.7-24.1,3.2c-6.6-1.2-13.1-3.8-18.1-8.5c-2.3-2.2-4.1-4.9-5.9-7.5
		c-1.8-2.7-3.6-5.4-5.5-8.1c-8.4-12.6-17.2-25.3-29.2-34.8c4.2-1.3,21.2-1.2,32.9,1.2c6.9,1.5,13.4,3.6,19.5,7.2
		c10.6,6.3,20.8,14.4,27.5,25c6.4,10,9.1,22,9.8,33.8c0.2-1.2,0.4-2.4,0.7-3.5c1.5-5.7,4.2-11,8.2-15.4c4-4.3,8.9-7.5,14.1-10
		c5.3-2.6,10.1-4.1,15.7-5.6c9.4-2.6,15.6-3.1,17.8-2.6c-0.4,1-4.4,11.1-7.2,16.2c-3.5,6.2-7.8,11.7-13.9,15.5
		c-9,5.5-26.6,7.6-29,5.5c2.7-6.2,7.7-16.1,18.3-22.6c10.9-6.7,24.3-10.4,24.4-10.1c0.1,0.3-12.7,4.4-22.7,11.5
		c-7.7,5.5-13.4,13.1-16.3,19.4c3.7-2.7,7.8-3.1,14.5-4.7c18-4.5,27.8-19.8,30.5-29.7c-1.5,0.1-3,0.3-4.4,0.6
		c-5.7,1-11.4,2.7-16.9,4.6c-5.2,1.8-11.3,5.4-15.9,8.5c-4.5,3-8.4,6.8-11.1,11.5c-2.9,5.3-4.3,11.4-4.6,17.4
		c-0.2,3.9-1.4,11.7-2,20.9c-0.2,2.5-0.4,7.4-0.8,13.4c2.4-0.1,4.9,0.7,5.4,2.3c0,0.1,0,0.2,0.1,0.3c30.6-5.7,65.7-11.6,106.5-17.5
		c0.2-3,0.3-6,0.3-9C358.8,55.2,303.6,0,235.4,0z"/>
</g>
</svg>
