<?xml version="1.0" encoding="utf-8"?>
<!-- Generator: Adobe Illustrator 28.0.0, SVG Export Plug-In . SVG Version: 6.00 Build 0)  -->
<svg version="1.1" id="Laag_1" xmlns="http://www.w3.org/2000/svg" xmlns:xlink="http://www.w3.org/1999/xlink" x="0px" y="0px"
	 viewBox="0 0 41 41" style="enable-background:new 0 0 41 41;" xml:space="preserve">
<style type="text/css">
	.st0{clip-path:url(#SVGID_00000094599993178536463000000014082686720189374129_);}
	.st1{fill:#FFFFFF;}
</style>
<g id="Group_60" transform="translate(6.477 -0.298) rotate(11)">
	<g>
		<defs>
			<rect id="SVGID_1_" x="0.3" y="0.3" transform="matrix(0.1908 -0.9816 0.9816 0.1908 -3.0614 31.7942)" width="35" height="35"/>
		</defs>
		<clipPath id="SVGID_00000121978240216108474230000007857791433278399381_">
			<use xlink:href="#SVGID_1_"  style="overflow:visible;"/>
		</clipPath>
		
			<g id="Group_8" transform="translate(0.244 0.244)" style="clip-path:url(#SVGID_00000121978240216108474230000007857791433278399381_);">
			<path id="Path_4" class="st1" d="M27.5,21.5c3.2,0.9,5.8,3,7.4,5.8c0.6,1,0.6,2.3,0,3.3c-0.4,0.6-0.7,1.2-1.1,1.9
				c-1.4,2.2-4.1,3.3-6.7,2.6c-6.4-1.9-12.3-5.4-17-10.2C5.3,20.2,1.8,14.4-0.1,8c-0.7-2.6,0.4-5.3,2.6-6.7c0.6-0.4,1.2-0.8,1.9-1.1
				c1-0.6,2.3-0.6,3.3,0c2.8,1.6,4.9,4.3,5.8,7.4c0.3,1.1,0.1,2.2-0.6,3.1l-1.7,2.1c-0.9,1.1-1,2.8-0.2,4c1.9,2.9,4.4,5.3,7.2,7.2
				c1.2,0.8,2.9,0.7,4-0.2l2.1-1.7C25.2,21.4,26.4,21.2,27.5,21.5"/>
		</g>
	</g>
</g>
</svg>
