<svg xmlns="http://www.w3.org/2000/svg" xmlns:xlink="http://www.w3.org/1999/xlink" width="41.035" height="41.035" viewBox="0 0 41.035 41.035">
  <defs>
    <clipPath id="clip-path">
      <rect id="Rectangle_19" data-name="Rectangle 19" width="35" height="35" transform="translate(0.01 0.01)" fill="#0a4164"/>
    </clipPath>
  </defs>
  <g id="Group_60" data-name="Group 60" transform="translate(6.477 -0.298) rotate(11)">
    <g id="Group_8" data-name="Group 8" transform="translate(0.244 0.244)" clip-path="url(#clip-path)">
      <path id="Path_4" data-name="Path 4" d="M27.753,21.8a12.23,12.23,0,0,1,7.432,5.8,3.411,3.411,0,0,1-.02,3.332q-.529.943-1.107,1.856a6.06,6.06,0,0,1-6.709,2.6A38.961,38.961,0,0,1,10.377,25.233,38.958,38.958,0,0,1,.215,8.26a6.059,6.059,0,0,1,2.6-6.709Q3.728.973,4.672.445A3.412,3.412,0,0,1,8,.425a12.227,12.227,0,0,1,5.8,7.432,3.381,3.381,0,0,1-.62,3.116l-1.719,2.1a3.378,3.378,0,0,0-.2,4.017,26.37,26.37,0,0,0,7.244,7.244,3.378,3.378,0,0,0,4.017-.2l2.1-1.719a3.381,3.381,0,0,1,3.116-.62" transform="translate(-0.295 -0.294)" fill="#0a4164"/>
    </g>
  </g>
</svg>
