<?xml version="1.0" encoding="utf-8"?>
<!-- Generator: Adobe Illustrator 28.0.0, SVG Export Plug-In . SVG Version: 6.00 Build 0)  -->
<svg version="1.1" id="Laag_1" xmlns="http://www.w3.org/2000/svg" xmlns:xlink="http://www.w3.org/1999/xlink" x="0px" y="0px"
	 viewBox="0 0 41 41" style="enable-background:new 0 0 41 41;" xml:space="preserve">
<style type="text/css">
	.st0{fill:#FFFFFF;}
</style>
<g id="Group_8" transform="translate(0.244 0.244)">
	<path id="Path_4" class="st0" d="M29.3,26.1c3,1.5,5.1,4.1,6.2,7.1c0.4,1.1,0.2,2.4-0.6,3.2c-0.5,0.5-0.9,1-1.4,1.7
		c-1.8,1.9-4.7,2.5-7.1,1.3c-5.9-3.1-11-7.6-14.7-13.3C7.8,20.6,5.4,14.2,4.8,7.6C4.6,4.9,6.2,2.5,8.6,1.5c0.7-0.3,1.3-0.6,2.1-0.7
		c1.1-0.4,2.4-0.2,3.2,0.6c2.4,2.1,4,5.2,4.3,8.4c0.1,1.1-0.3,2.2-1.2,2.9L15,14.4c-1.1,0.9-1.5,2.6-1,3.9c1.3,3.2,3.3,6,5.7,8.4
		c1,1,2.7,1.2,4,0.6l2.4-1.3C27.1,25.6,28.3,25.6,29.3,26.1"/>
</g>
</svg>
