<?xml version="1.0" encoding="utf-8"?>
<!-- Generator: Adobe Illustrator 27.8.0, SVG Export Plug-In . SVG Version: 6.00 Build 0)  -->
<svg version="1.1" id="Layer_1" xmlns="http://www.w3.org/2000/svg" xmlns:xlink="http://www.w3.org/1999/xlink" x="0px" y="0px"
	 viewBox="0 0 100 100" style="enable-background:new 0 0 100 100;" xml:space="preserve">
<style type="text/css">
	.st0{fill-rule:evenodd;clip-rule:evenodd;fill:#0A4164;}
</style>
<path class="st0" d="M49.2,81.9l-0.5,0.2c-0.8,0.2-1.5,0.3-2.3,0.3h-0.1H46l-0.4,0c-0.4,0-0.9-0.1-1.5-0.3l-0.3,0l-0.7-0.3
	c-0.5-0.2-17.4-9-30.4-15.6c-6.1,3.7-10.9,6.7-11.6,7.1c-0.3,0.2-0.6,0.4-0.8,0.8C0,74.5,0,75,0,75.4c0,0,0,0,0,0.1
	c0,0.2,0.1,0.4,0.2,0.6c0,0,0,0.1,0.1,0.1c0,0,0,0,0,0c0.1,0.1,0.2,0.2,0.3,0.3c0.1,0.1,0.2,0.2,0.4,0.3c0,0,0,0,0,0
	c0.6,0.3,43.8,22.6,44.4,22.9c0,0,0.1,0,0.1,0c0.2,0.1,0.4,0.1,0.6,0.2c0.1,0,0.1,0,0.2,0c0.2,0,0.4,0,0.7-0.1c0,0,0.1,0,0.1,0
	c0.1-0.1,0.3-0.1,0.4-0.2l42.4-26c0.1,0,0.1-0.1,0.2-0.1c0.1-0.1,0.2-0.2,0.3-0.3c0.1-0.1,0.2-0.2,0.3-0.3c0-0.1,0.1-0.1,0.1-0.2
	c0-0.1,0-0.1,0-0.2c0-0.1,0.1-0.3,0.1-0.4c0-0.1,0-0.3,0-0.4c0-0.1,0-0.3-0.1-0.4c0-0.1-0.1-0.3-0.1-0.4c0-0.1,0-0.1-0.1-0.2
	c0-0.1-0.1-0.1-0.1-0.2c-0.1-0.1-0.2-0.2-0.3-0.3c-0.1-0.1-0.2-0.2-0.3-0.2c-0.1,0-0.1-0.1-0.2-0.1l-11.3-5.8L50.7,81.3
	C50.2,81.6,49.6,81.8,49.2,81.9z"/>
<path class="st0" d="M49.2,58.4l-0.4,0.1c-0.8,0.2-1.6,0.4-2.4,0.4H46l-0.5,0c-0.5,0-1-0.1-1.6-0.3l-0.3-0.1l-0.7-0.3
	c-0.5-0.3-17.5-9-30.4-15.6c-6.1,3.7-10.9,6.7-11.6,7.1c-0.3,0.2-0.6,0.4-0.8,0.8C0,51,0,51.5,0,51.9c0,0,0,0,0,0.1
	c0,0.2,0.1,0.4,0.2,0.6c0,0,0,0.1,0.1,0.1c0,0,0,0,0,0c0.1,0.1,0.2,0.2,0.3,0.3c0.1,0.1,0.2,0.2,0.4,0.3c0,0,0,0,0,0
	C1.7,53.7,44.9,76,45.5,76.3c0,0,0.1,0,0.1,0c0.2,0.1,0.4,0.1,0.6,0.2c0.1,0,0.1,0,0.2,0c0.2,0,0.4,0,0.7-0.1c0,0,0.1,0,0.1,0
	c0.1-0.1,0.3-0.1,0.4-0.2L90,50.2c0.1,0,0.1-0.1,0.2-0.1c0.1-0.1,0.2-0.2,0.3-0.3c0.1-0.1,0.2-0.2,0.3-0.3c0-0.1,0.1-0.1,0.1-0.2
	c0-0.1,0-0.1,0-0.2c0-0.1,0.1-0.3,0.1-0.4c0-0.1,0-0.3,0-0.4c0-0.1,0-0.3-0.1-0.4c0-0.1-0.1-0.3-0.1-0.4c0-0.1,0-0.1-0.1-0.2
	c0-0.1-0.1-0.1-0.1-0.2c-0.1-0.1-0.2-0.2-0.3-0.3c-0.1-0.1-0.2-0.2-0.3-0.2c-0.1,0-0.1-0.1-0.2-0.1l-11.3-5.8L50.7,57.8
	C50.1,58.1,49.6,58.3,49.2,58.4z"/>
<path class="st0" d="M45.6,0.2c-0.1,0-0.2,0-0.2-0.1C45.3,0.1,45.1,0.1,45,0c-0.2,0-0.3,0-0.5,0c-0.1,0-0.2,0-0.3,0
	c-0.2,0-0.4,0.1-0.5,0.2c0,0-0.1,0-0.2,0C43,0.6,3.3,24.9,1.1,26.3c-0.3,0.2-0.6,0.4-0.8,0.8C0,27.5,0,28,0,28.4c0,0,0,0,0,0.1
	c0,0.2,0.1,0.4,0.2,0.6c0,0,0,0.1,0.1,0.1c0,0,0,0,0,0c0.1,0.1,0.2,0.2,0.3,0.3c0.1,0.1,0.2,0.2,0.4,0.3c0,0,0,0,0,0
	c0.6,0.3,43.8,22.6,44.4,22.9c0,0,0.1,0,0.1,0c0.2,0.1,0.4,0.1,0.6,0.2c0.1,0,0.1,0,0.2,0c0.2,0,0.4,0,0.7-0.1c0,0,0.1,0,0.1,0
	c0.1-0.1,0.3-0.1,0.4-0.2L90,26.7c0.1,0,0.1-0.1,0.2-0.1c0.1-0.1,0.2-0.2,0.3-0.3c0.1-0.1,0.2-0.2,0.3-0.3c0-0.1,0.1-0.1,0.1-0.2
	c0-0.1,0-0.1,0-0.2c0-0.1,0.1-0.3,0.1-0.4c0-0.1,0-0.3,0-0.4c0-0.1,0-0.3-0.1-0.4c0-0.1-0.1-0.3-0.1-0.4c0-0.1,0-0.1-0.1-0.2
	c0-0.1-0.1-0.1-0.1-0.2c-0.1-0.1-0.2-0.2-0.3-0.3c-0.1-0.1-0.2-0.2-0.3-0.2c-0.1,0-0.1-0.1-0.2-0.1L45.6,0.2z"/>
</svg>
