<?xml version="1.0" encoding="utf-8"?>
<!-- Generator: Adobe Illustrator 28.0.0, SVG Export Plug-In . SVG Version: 6.00 Build 0)  -->
<svg version="1.1" id="Laag_1" xmlns="http://www.w3.org/2000/svg" xmlns:xlink="http://www.w3.org/1999/xlink" x="0px" y="0px"
	 viewBox="0 0 16 7.3" style="enable-background:new 0 0 16 7.3;" xml:space="preserve">
<style type="text/css">
	.st0{fill:#020203;}
</style>
<path class="st0" d="M0.5,3.8L1,3.2C1,3.1,1,3,0.9,2.9c-0.1-0.1-0.2-0.1-0.3,0L0.1,3.6c0,0,0,0,0,0c0,0,0,0,0,0c0,0,0,0,0,0
	c0,0,0,0,0,0c0,0,0,0,0,0c0,0,0,0,0,0c0,0,0,0,0,0c0,0,0,0,0,0c0,0,0,0,0,0c0,0,0,0,0,0c0,0,0,0,0,0c0,0,0,0,0,0c0,0,0,0,0,0
	c0,0,0,0,0,0c0,0,0,0,0,0c0,0,0,0,0,0l0.6,0.7c0,0,0.1,0.1,0.2,0.1c0,0,0.1,0,0.1-0.1C1,4.5,1,4.4,1,4.3L0.5,3.8z"/>
<path class="st0" d="M16,3.9C16,3.8,16,3.8,16,3.9C16,3.8,16,3.8,16,3.9C16,3.8,16,3.8,16,3.9C16,3.8,16,3.8,16,3.9
	C16,3.8,16,3.8,16,3.9c0-0.1,0-0.1,0-0.1c0,0,0,0,0,0c0,0,0,0,0,0c0,0,0,0,0,0c0,0,0,0,0,0c0,0,0,0,0,0c0,0,0,0,0,0c0,0,0,0,0,0
	l-0.6-0.7c-0.1-0.1-0.2-0.1-0.3,0C15,3,15,3.1,15.1,3.2l0.5,0.5l-0.5,0.5c-0.1,0.1-0.1,0.2,0,0.3c0,0,0.1,0.1,0.1,0.1
	c0.1,0,0.1,0,0.2-0.1L16,3.9C16,3.9,16,3.9,16,3.9C16,3.9,16,3.9,16,3.9C16,3.9,16,3.9,16,3.9z"/>
<path class="st0" d="M10.6,7.3h-5c-0.3,0-0.5-0.2-0.5-0.5V0.5C5.1,0.2,5.3,0,5.6,0h5c0.3,0,0.5,0.2,0.5,0.5v6.3
	C11.1,7.1,10.9,7.3,10.6,7.3z"/>
<path class="st0" d="M4.1,6.2H2.4C2.1,6.2,1.9,6,1.9,5.7V2c0-0.3,0.2-0.5,0.5-0.5h1.7c0.3,0,0.5,0.2,0.5,0.5v3.7
	C4.6,6,4.3,6.2,4.1,6.2z"/>
<path class="st0" d="M13.7,6.2h-1.7c-0.3,0-0.5-0.2-0.5-0.5V2c0-0.3,0.2-0.5,0.5-0.5h1.7c0.3,0,0.5,0.2,0.5,0.5v3.7
	C14.2,6,14,6.2,13.7,6.2z"/>
</svg>
