<?xml version="1.0" encoding="utf-8"?>
<!-- Generator: Adobe Illustrator 27.8.0, SVG Export Plug-In . SVG Version: 6.00 Build 0)  -->
<svg version="1.1" id="Layer_1" xmlns="http://www.w3.org/2000/svg" xmlns:xlink="http://www.w3.org/1999/xlink" x="0px" y="0px"
	 viewBox="0 0 100 100" style="enable-background:new 0 0 100 100;" xml:space="preserve">
<style type="text/css">
	.st0{fill:#0A4164;}
</style>
<g>
	<path class="st0" d="M20.6,59l5.2,5.2c1.1,1.1,1.1,2.8,0,3.9c-0.5,0.5-1.2,0.7-1.9,0.7c-0.7,0-1.5-0.2-1.9-0.7l-5.2-5.2l-6.4,6.4
		l5.2,5.2c1.1,1.1,1.1,2.8,0,3.9c-0.5,0.5-1.2,0.7-1.9,0.7c-0.7,0-1.4-0.3-1.9-0.7l-5.3-5.3l-5.2,5.2C-0.5,80-0.5,83,1.4,84.8
		l13.8,13.8c0.9,0.8,2.1,1.4,3.3,1.4c1.2,0,2.3-0.4,3.3-1.4l26.6-26.6L28,51.6L20.6,59z"/>
	<path class="st0" d="M98.6,15.1L84.8,1.3c-1.7-1.7-4.7-1.7-6.5,0l-5.1,5.2l5.2,5.2c1.1,1.1,1.1,2.8,0,3.9c-0.5,0.5-1.2,0.8-1.9,0.8
		S75,16,74.6,15.5l-5.2-5.2L63,16.7l5.2,5.2c1.1,1.1,1.1,2.8,0,3.9c-0.5,0.5-1.2,0.7-1.9,0.7s-1.5-0.2-1.9-0.7L59,20.4l-7.5,7.5
		l20.3,20.3l26.7-26.7c0.8-0.8,1.4-2,1.4-3.3C100,17,99.5,15.9,98.6,15.1z"/>
	
		<rect x="39.6" y="12.6" transform="matrix(0.7071 -0.7071 0.7071 0.7071 -21.0059 50.8761)" class="st0" width="22.5" height="76.3"/>
	<path class="st0" d="M91.9,75.9l-2.1-2.1l-16,15.9l2.1,2.1c0.6,0.6,1.4,0.9,2.2,1.2l12.2,2c2.7,0.4,5.1-1.9,4.6-4.6l-2-12.2
		C92.8,77.3,92.5,76.5,91.9,75.9z"/>
	<path class="st0" d="M12.1,27.9L28,12l-6.4-6.4C20,4,17.4,4,15.9,5.6L5.6,15.8c-1.6,1.6-1.6,4.1,0,5.7L12.1,27.9z"/>
</g>
</svg>
