<svg xmlns="http://www.w3.org/2000/svg" width="247.207" height="27.132" viewBox="0 0 247.207 27.132">
  <g id="Group_408" data-name="Group 408" transform="translate(-840.794 -4324.49)">
    <path id="Path_37" data-name="Path 37" d="M14.264,0,9.856,8.931,0,10.363l7.132,6.952L5.448,27.132,14.264,22.5l8.816,4.635L21.4,17.315l7.132-6.952L18.672,8.931Z" transform="translate(840.794 4324.49)" fill="#fff"/>
    <path id="Path_37-2" data-name="Path 37" d="M14.264,0,9.856,8.931,0,10.363l7.132,6.952L5.448,27.132,14.264,22.5l8.816,4.635L21.4,17.315l7.132-6.952L18.672,8.931Z" transform="translate(895.463 4324.49)" fill="#fff"/>
    <path id="Path_37-3" data-name="Path 37" d="M14.264,0,9.856,8.931,0,10.363l7.132,6.952L5.448,27.132,14.264,22.5l8.816,4.635L21.4,17.315l7.132-6.952L18.672,8.931Z" transform="translate(950.133 4324.49)" fill="#fff"/>
    <path id="Path_37-4" data-name="Path 37" d="M14.264,0,9.856,8.931,0,10.363l7.132,6.952L5.448,27.132,14.264,22.5l8.816,4.635L21.4,17.315l7.132-6.952L18.672,8.931Z" transform="translate(1004.802 4324.49)" fill="#fff"/>
    <path id="Path_37-5" data-name="Path 37" d="M14.264,0,9.856,8.931,0,10.363l7.132,6.952L5.448,27.132,14.264,22.5l8.816,4.635L21.4,17.315l7.132-6.952L18.672,8.931Z" transform="translate(1059.472 4324.49)" fill="#fff"/>
  </g>
</svg>
