<?xml version="1.0" encoding="utf-8"?>
<!-- Generator: Adobe Illustrator 28.0.0, SVG Export Plug-In . SVG Version: 6.00 Build 0)  -->
<svg version="1.1" id="Laag_1" xmlns="http://www.w3.org/2000/svg" xmlns:xlink="http://www.w3.org/1999/xlink" x="0px" y="0px"
	 viewBox="0 0 32 32" style="enable-background:new 0 0 32 32;" xml:space="preserve">
<style type="text/css">
	.st0{fill-rule:evenodd;clip-rule:evenodd;fill:#FFFFFF;}
</style>
<path class="st0" d="M4.7,0.6C2.2,0.9,0.3,3.8,0.2,7.3C0.1,10.2,0,13.6,0,15.9s0.1,5.8,0.2,8.7c0.1,3.5,2,6.4,4.4,6.7
	C7.3,31.6,11.2,32,16,32s8.7-0.3,11.4-0.7c2.4-0.3,4.3-3.2,4.4-6.7c0.1-3.1,0.2-6.7,0.2-8.7c0-2-0.1-5.5-0.2-8.6
	c-0.1-3.6-2-6.5-4.5-6.7C24.7,0.3,20.8,0,16,0S7.3,0.3,4.7,0.6z M12.6,10.9l8.7,5l-8.7,5V10.9z"/>
</svg>
